<mxfile host="Electron" modified="2023-11-21T13:41:35.406Z" agent="Mozilla/5.0 (Windows NT 10.0; Win64; x64) AppleWebKit/537.36 (KHTML, like Gecko) draw.io/22.0.3 Chrome/114.0.5735.289 Electron/25.8.4 Safari/537.36" etag="vetxTHWOVsLwDLNi5It4" version="22.0.3" type="device">
  <diagram name="Page-1" id="OuYMhSyWYj2W4IYW3-0W">
    <mxGraphModel dx="1195" dy="697" grid="1" gridSize="10" guides="1" tooltips="1" connect="1" arrows="1" fold="1" page="1" pageScale="1" pageWidth="1169" pageHeight="827" math="0" shadow="0">
      <root>
        <mxCell id="0" />
        <mxCell id="1" parent="0" />
        <mxCell id="UUSNZg-RWot4KdmJYI-3-1" style="edgeStyle=orthogonalEdgeStyle;rounded=0;orthogonalLoop=1;jettySize=auto;html=1;entryX=0;entryY=0;entryDx=80;entryDy=0;entryPerimeter=0;exitX=0.63;exitY=1;exitDx=0;exitDy=0;exitPerimeter=0;endArrow=none;endFill=0;" edge="1" parent="1" source="UUSNZg-RWot4KdmJYI-3-4" target="UUSNZg-RWot4KdmJYI-3-8">
          <mxGeometry relative="1" as="geometry" />
        </mxCell>
        <mxCell id="UUSNZg-RWot4KdmJYI-3-2" style="edgeStyle=orthogonalEdgeStyle;rounded=0;orthogonalLoop=1;jettySize=auto;html=1;entryX=0;entryY=0;entryDx=80;entryDy=0;entryPerimeter=0;exitX=0.38;exitY=1;exitDx=0;exitDy=0;exitPerimeter=0;endArrow=none;endFill=0;" edge="1" parent="1" source="UUSNZg-RWot4KdmJYI-3-4" target="UUSNZg-RWot4KdmJYI-3-6">
          <mxGeometry relative="1" as="geometry" />
        </mxCell>
        <mxCell id="UUSNZg-RWot4KdmJYI-3-3" value="&amp;lt;&amp;lt;protocol&amp;gt;&amp;gt;&lt;br&gt;I2C" style="edgeLabel;html=1;align=center;verticalAlign=middle;resizable=0;points=[];" vertex="1" connectable="0" parent="UUSNZg-RWot4KdmJYI-3-2">
          <mxGeometry x="-0.2541" y="1" relative="1" as="geometry">
            <mxPoint x="-18" y="-3" as="offset" />
          </mxGeometry>
        </mxCell>
        <mxCell id="UUSNZg-RWot4KdmJYI-3-4" value="" style="shape=cube;whiteSpace=wrap;html=1;boundedLbl=1;backgroundOutline=1;darkOpacity=0.05;darkOpacity2=0.1;size=10;points=[[0,0,0,0,0],[0,0,0,0,55],[0,0,0,0,110],[0,0,0,5,115],[0,0,0,80,0],[0,0,0,160,0],[0,0,0,165,5],[0,0,0,170,10],[0,0,0,170,65],[0.13,1,0,0,0],[0.25,1,0,0,0],[0.38,1,0,0,0],[0.5,1,0,0,0],[0.63,1,0,0,0],[0.75,1,0,0,0],[0.88,1,0,0,0]];" vertex="1" parent="1">
          <mxGeometry x="360" y="160" width="170" height="120" as="geometry" />
        </mxCell>
        <mxCell id="UUSNZg-RWot4KdmJYI-3-5" value="&amp;lt;&amp;lt;device&amp;gt;&amp;gt;&lt;br&gt;Arduino uno" style="text;html=1;align=center;verticalAlign=middle;resizable=0;points=[];autosize=1;strokeColor=none;" vertex="1" parent="1">
          <mxGeometry x="400" y="175" width="80" height="30" as="geometry" />
        </mxCell>
        <mxCell id="UUSNZg-RWot4KdmJYI-3-6" value="" style="shape=cube;whiteSpace=wrap;html=1;boundedLbl=1;backgroundOutline=1;darkOpacity=0.05;darkOpacity2=0.1;size=10;" vertex="1" parent="1">
          <mxGeometry x="270" y="342" width="170" height="120" as="geometry" />
        </mxCell>
        <mxCell id="UUSNZg-RWot4KdmJYI-3-7" value="&amp;lt;&amp;lt;device&amp;gt;&amp;gt;&lt;br&gt;Arduino uno" style="text;html=1;align=center;verticalAlign=middle;resizable=0;points=[];autosize=1;strokeColor=none;" vertex="1" parent="1">
          <mxGeometry x="310" y="352" width="90" height="40" as="geometry" />
        </mxCell>
        <mxCell id="UUSNZg-RWot4KdmJYI-3-8" value="" style="shape=cube;whiteSpace=wrap;html=1;boundedLbl=1;backgroundOutline=1;darkOpacity=0.05;darkOpacity2=0.1;size=10;" vertex="1" parent="1">
          <mxGeometry x="460" y="342" width="170" height="120" as="geometry" />
        </mxCell>
        <mxCell id="UUSNZg-RWot4KdmJYI-3-9" value="&amp;lt;&amp;lt;artifacts&amp;gt;&amp;gt;&lt;br&gt;clam_cage - slave.ino" style="rounded=0;whiteSpace=wrap;html=1;" vertex="1" parent="1">
          <mxGeometry x="485" y="392" width="120" height="60" as="geometry" />
        </mxCell>
        <mxCell id="UUSNZg-RWot4KdmJYI-3-10" value="&amp;lt;&amp;lt;device&amp;gt;&amp;gt;&lt;br&gt;Arduino uno" style="text;html=1;align=center;verticalAlign=middle;resizable=0;points=[];autosize=1;strokeColor=none;" vertex="1" parent="1">
          <mxGeometry x="505" y="357" width="80" height="30" as="geometry" />
        </mxCell>
        <mxCell id="UUSNZg-RWot4KdmJYI-3-11" value="&amp;lt;&amp;lt;artifacts&amp;gt;&amp;gt;&lt;br&gt;scarecrow - slave.ino" style="rounded=0;whiteSpace=wrap;html=1;" vertex="1" parent="1">
          <mxGeometry x="295" y="392" width="120" height="60" as="geometry" />
        </mxCell>
        <mxCell id="UUSNZg-RWot4KdmJYI-3-12" value="&amp;lt;&amp;lt;artifacts&amp;gt;&amp;gt;&lt;br&gt;oxygen_measurement - master.ino" style="rounded=0;whiteSpace=wrap;html=1;" vertex="1" parent="1">
          <mxGeometry x="385" y="210" width="120" height="60" as="geometry" />
        </mxCell>
        <mxCell id="UUSNZg-RWot4KdmJYI-3-13" value="&amp;lt;&amp;lt;protocol&amp;gt;&amp;gt;&lt;br&gt;I2C" style="edgeLabel;html=1;align=center;verticalAlign=middle;resizable=0;points=[];" vertex="1" connectable="0" parent="1">
          <mxGeometry x="475.0033333333332" y="289.5" as="geometry">
            <mxPoint x="28" y="20" as="offset" />
          </mxGeometry>
        </mxCell>
      </root>
    </mxGraphModel>
  </diagram>
</mxfile>
